<?xml version="1.0" standalone="no"?><svg xmlns="http://www.w3.org/2000/svg" viewBox="0 0 1440 320"><path fill="#f1cfda" fill-opacity="1" d="M0,96L40,128C80,160,160,224,240,234.7C320,245,400,203,480,170.7C560,139,640,117,720,128C800,139,880,181,960,218.7C1040,256,1120,288,1200,282.7C1280,277,1360,235,1400,213.3L1440,192L1440,320L1400,320C1360,320,1280,320,1200,320C1120,320,1040,320,960,320C880,320,800,320,720,320C640,320,560,320,480,320C400,320,320,320,240,320C160,320,80,320,40,320L0,320Z"></path></svg>